<?xml version="1.0" encoding="UTF-8" standalone="no"?>
<!-- Created with Inkscape (http://www.inkscape.org/) -->

<svg
   width="148mm"
   height="210mm"
   viewBox="0 0 148 210"
   version="1.1"
   id="svg1"
   inkscape:version="1.4 (86a8ad7, 2024-10-11)"
   sodipodi:docname="20250907-0106_holistic_therapy_clinic_a5_flyer_rear.svg"
   xml:space="preserve"
   inkscape:export-filename="20250907-1344_holistic_therapy_clinic_a5_flyer_rear.webp"
   inkscape:export-xdpi="96"
   inkscape:export-ydpi="96"
   xmlns:inkscape="http://www.inkscape.org/namespaces/inkscape"
   xmlns:sodipodi="http://sodipodi.sourceforge.net/DTD/sodipodi-0.dtd"
   xmlns:xlink="http://www.w3.org/1999/xlink"
   xmlns="http://www.w3.org/2000/svg"
   xmlns:svg="http://www.w3.org/2000/svg"><sodipodi:namedview
     id="namedview1"
     pagecolor="#ffffff"
     bordercolor="#000000"
     borderopacity="0.25"
     inkscape:showpageshadow="2"
     inkscape:pageopacity="0.0"
     inkscape:pagecheckerboard="0"
     inkscape:deskcolor="#d1d1d1"
     inkscape:document-units="mm"
     inkscape:zoom="1.4142136"
     inkscape:cx="188.0904"
     inkscape:cy="391.73716"
     inkscape:window-width="2560"
     inkscape:window-height="1351"
     inkscape:window-x="-9"
     inkscape:window-y="-9"
     inkscape:window-maximized="1"
     inkscape:current-layer="layer6"
     inkscape:export-bgcolor="#ffffff00" /><defs
     id="defs1"><linearGradient
       id="linearGradient48"
       inkscape:collect="always"><stop
         style="stop-color:#caa7d9;stop-opacity:0.13725491;"
         offset="0"
         id="stop47" /><stop
         style="stop-color:#caa7d9;stop-opacity:0;"
         offset="1"
         id="stop48" /></linearGradient><linearGradient
       id="linearGradient46"
       inkscape:collect="always"><stop
         style="stop-color:#caa7d9;stop-opacity:0.14901961;"
         offset="0"
         id="stop45" /><stop
         style="stop-color:#caa7d9;stop-opacity:0;"
         offset="1"
         id="stop46" /></linearGradient><linearGradient
       id="linearGradient44"
       inkscape:collect="always"><stop
         style="stop-color:#49754e;stop-opacity:0.78039217;"
         offset="0"
         id="stop43" /><stop
         style="stop-color:#caa7d9;stop-opacity:0;"
         offset="1"
         id="stop44" /></linearGradient><linearGradient
       id="linearGradient42"
       inkscape:collect="always"><stop
         style="stop-color:#caa7d9;stop-opacity:0.42352942;"
         offset="0"
         id="stop41" /><stop
         style="stop-color:#caa7d9;stop-opacity:0.01568628;"
         offset="1"
         id="stop42" /></linearGradient><linearGradient
       id="linearGradient40"
       inkscape:collect="always"><stop
         style="stop-color:#caa7d9;stop-opacity:0.44313726;"
         offset="0"
         id="stop39" /><stop
         style="stop-color:#caa7d9;stop-opacity:0;"
         offset="1"
         id="stop40" /></linearGradient><linearGradient
       id="linearGradient26"
       inkscape:collect="always"><stop
         style="stop-color:#49754e;stop-opacity:0.78134555;"
         offset="0"
         id="stop26" /><stop
         style="stop-color:#49754e;stop-opacity:0;"
         offset="1"
         id="stop27" /></linearGradient><linearGradient
       id="linearGradient24"
       inkscape:collect="always"><stop
         style="stop-color:#49754e;stop-opacity:0.13835599;"
         offset="0"
         id="stop24" /><stop
         style="stop-color:#49754e;stop-opacity:0;"
         offset="1"
         id="stop25" /></linearGradient><linearGradient
       id="linearGradient22"
       inkscape:collect="always"><stop
         style="stop-color:#1e3221;stop-opacity:0.13835599;"
         offset="0"
         id="stop22" /><stop
         style="stop-color:#1e3221;stop-opacity:0;"
         offset="1"
         id="stop23" /></linearGradient><linearGradient
       id="linearGradient14"
       inkscape:collect="always"><stop
         style="stop-color:#647e58;stop-opacity:0.14984709;"
         offset="0"
         id="stop14" /><stop
         style="stop-color:#90a586;stop-opacity:0;"
         offset="1"
         id="stop15" /></linearGradient><linearGradient
       id="linearGradient11"
       inkscape:collect="always"><stop
         style="stop-color:#647e58;stop-opacity:0.44342509;"
         offset="0"
         id="stop12" /><stop
         style="stop-color:#647e58;stop-opacity:0;"
         offset="1"
         id="stop13" /></linearGradient><linearGradient
       id="linearGradient6"
       inkscape:collect="always"><stop
         style="stop-color:#647e58;stop-opacity:0.42507645;"
         offset="0"
         id="stop6" /><stop
         style="stop-color:#647e58;stop-opacity:0.01376147;"
         offset="1"
         id="stop7" /></linearGradient><linearGradient
       inkscape:collect="always"
       xlink:href="#linearGradient6"
       id="linearGradient7"
       x1="0"
       y1="105.00535"
       x2="54.672859"
       y2="106.12788"
       gradientUnits="userSpaceOnUse" /><linearGradient
       inkscape:collect="always"
       xlink:href="#linearGradient11"
       id="linearGradient13"
       x1="0.00103353"
       y1="105.00135"
       x2="90.390396"
       y2="110.98819"
       gradientUnits="userSpaceOnUse" /><linearGradient
       inkscape:collect="always"
       xlink:href="#linearGradient14"
       id="linearGradient15"
       x1="25.693885"
       y1="129.78003"
       x2="48.911617"
       y2="131.27673"
       gradientUnits="userSpaceOnUse" /><linearGradient
       inkscape:collect="always"
       xlink:href="#linearGradient22"
       id="linearGradient23"
       x1="60.94413"
       y1="170.7184"
       x2="55.50787"
       y2="178.06165"
       gradientUnits="userSpaceOnUse"
       gradientTransform="translate(3.7417734,-0.56126601)" /><linearGradient
       inkscape:collect="always"
       xlink:href="#linearGradient24"
       id="linearGradient25"
       x1="69.48027"
       y1="192.45395"
       x2="60.578457"
       y2="191.19717"
       gradientUnits="userSpaceOnUse"
       gradientTransform="translate(3.7417734,-0.56126601)" /><linearGradient
       inkscape:collect="always"
       xlink:href="#linearGradient26"
       id="linearGradient27"
       x1="69.386971"
       y1="163.73535"
       x2="58.320225"
       y2="159.43585"
       gradientUnits="userSpaceOnUse"
       gradientTransform="translate(3.7417734,-0.56126601)" /><linearGradient
       inkscape:collect="always"
       xlink:href="#linearGradient40"
       id="linearGradient13-1"
       x1="0.00103353"
       y1="105.00135"
       x2="90.390396"
       y2="110.98819"
       gradientUnits="userSpaceOnUse"
       gradientTransform="matrix(-1,0,0,1,148.01385,-0.26458336)" /><linearGradient
       inkscape:collect="always"
       xlink:href="#linearGradient42"
       id="linearGradient7-8"
       x1="0"
       y1="105.00535"
       x2="54.672859"
       y2="106.12788"
       gradientUnits="userSpaceOnUse"
       gradientTransform="matrix(-1,0,0,1,148.01385,-0.26458336)" /><linearGradient
       inkscape:collect="always"
       xlink:href="#linearGradient46"
       id="linearGradient36"
       gradientUnits="userSpaceOnUse"
       x1="25.693885"
       y1="129.78003"
       x2="48.911617"
       y2="131.27673"
       gradientTransform="matrix(-1,0,0,1,148.01385,-0.26458336)" /><linearGradient
       inkscape:collect="always"
       xlink:href="#linearGradient48"
       id="linearGradient37"
       gradientUnits="userSpaceOnUse"
       gradientTransform="matrix(-1,0,0,1,145.95587,-0.29668263)"
       x1="60.94413"
       y1="170.7184"
       x2="55.50787"
       y2="178.06165" /><linearGradient
       inkscape:collect="always"
       xlink:href="#linearGradient24"
       id="linearGradient38"
       gradientUnits="userSpaceOnUse"
       gradientTransform="matrix(-1,0,0,1,145.95587,-0.29668263)"
       x1="69.48027"
       y1="192.45395"
       x2="60.578457"
       y2="191.19717" /><linearGradient
       inkscape:collect="always"
       xlink:href="#linearGradient44"
       id="linearGradient39"
       gradientUnits="userSpaceOnUse"
       gradientTransform="matrix(-1,0,0,1,145.95587,-0.29668263)"
       x1="69.386971"
       y1="163.73535"
       x2="58.320225"
       y2="159.43585" /></defs><g
     inkscape:label="reference_images"
     inkscape:groupmode="layer"
     id="layer1"
     style="display:none"><image
       width="147.95099"
       height="209.95946"
       preserveAspectRatio="none"
       style="display:none;opacity:0.211;image-rendering:optimizeQuality"
       xlink:href="Gemini_Generated_Image_9na8md9na8md9na8.png"
       id="image1"
       x="0.043773863"
       y="0.0080146389" /></g><g
     inkscape:groupmode="layer"
     id="layer6"
     inkscape:label="left_side_01"
     style="display:inline"><path
       id="rect2"
       style="display:inline;mix-blend-mode:multiply;fill:url(#linearGradient13);stroke:#648155;stroke-width:0"
       d="M 0.00103353,0.00155029 V 205.34509 L 0.04650879,0.04650879 60.788538,0.00155029 Z m 62.88246647,0 C 67.433852,11.541559 61.475219,17.857182 48.748962,20.018416 H 37.813196 C 26.465877,20.65836 23.933278,28.110037 23.355164,37.071639 l 2.224153,39.481311 c 0.681631,8.09397 -0.09115,17.299829 -3.33623,25.3938 -1.60829,4.77197 -1.771135,14.71544 -2.816366,28.21481 -0.388786,5.02125 -1.857831,10.53479 -2.188497,16.45688 l -1.668115,7.41402 c 1.353292,7.84082 0.110136,13.0855 -0.927075,18.53582 1.004051,3.54782 2.608478,6.02607 2.409672,8.52661 2.428117,3.75495 5.054462,7.17084 8.34161,9.45317 l 1.853116,-0.74156 1.668632,-0.92656 1.112077,0.18552 5.557801,20.93568 H 148.0137 V 0.00155029 Z" /><path
       style="display:inline;fill:url(#linearGradient7);stroke:#648155;stroke-width:0"
       d="M 62.88273,0 C 67.434255,11.541017 61.476017,17.85734 48.749177,20.018673 H 37.813048 C 26.465729,20.658617 23.933233,28.110015 23.355119,37.071617 l 2.224296,39.481273 c 0.681631,8.09397 -0.09136,17.30009 -3.336445,25.39406 -1.60829,4.77197 -1.770792,14.71535 -2.816023,28.21472 -0.388786,5.02125 -1.857979,10.53449 -2.188645,16.45658 l -1.668223,7.41432 c 1.353292,7.84082 0.110421,13.08549 -0.92679,18.53581 1.004051,3.54782 2.608461,6.02593 2.409655,8.52647 2.428117,3.75495 5.053966,7.17093 8.341114,9.45326 l 1.85358,-0.74143 1.668224,-0.92679 1.112147,0.18536 5.560743,20.94546 H 0 L 0.04633952,0.04633952 Z"
       id="path1"
       sodipodi:nodetypes="ccccccscccccccccccc" /><path
       style="display:inline;fill:url(#linearGradient15);stroke:#648155;stroke-width:0"
       d="m 39.101532,49.578498 c 1.101537,9.479159 2.165168,18.958318 2.057974,28.437477 1.171068,4.150871 2.100248,6.185222 3.928862,16.089624 -0.561262,5.61266 -1.346702,15.838991 -1.683798,16.837981 -1.815244,4.90721 -7.109368,13.22093 -10.664052,19.8314 -3.254047,6.52892 -6.119144,13.41028 -6.746542,21.51519 -0.448322,6.67283 -0.47256,12.15504 0.472422,19.68776 0.77202,5.47469 2.552877,11.46614 3.873007,17.23998 1.555649,6.80392 3.390042,13.76491 5.263211,20.76366 l 18.041654,-0.0347 C 51.90243,192.35208 48.559925,174.75729 48.418749,157.1625 48.731561,141.93215 54.536256,127.80017 58.208333,113.24167 58.875295,99.629103 53.560361,88.291683 52.652083,74.083332 51.726843,58.988452 44.198421,55.49482 43.893768,55.332769 Z"
       id="path13"
       sodipodi:nodetypes="cccccccsccccccc" /><path
       style="display:inline;fill:#49754e;fill-opacity:0.138356;stroke:#648155;stroke-width:0"
       d="m 24.789248,159.91404 c -0.137831,-1.81593 -0.302576,-3.51598 -0.795127,-4.95785 1.197497,-11.73552 14.106226,-44.51838 15.621905,-50.60748 1.364152,-10.209391 1.533309,-19.584023 1.54348,-28.297166 0.799318,4.982281 4.531754,11.242459 3.924582,17.873758 -0.872899,9.533468 -1.327721,15.657408 -1.711393,16.890498 -1.09203,3.50968 -5.017552,9.25694 -7.359001,13.76237 -1.405353,2.70419 -6.903769,13.02327 -8.139833,18.05238 -2.011616,5.45506 -2.242547,13.81727 -2.14862,17.51974 0.01777,0.70061 -0.718889,0.39303 -0.935993,-0.2362 z"
       id="path15"
       sodipodi:nodetypes="ccccssscscc" /><path
       style="display:inline;fill:url(#linearGradient23);stroke:#648155;stroke-width:0"
       d="m 73.525847,209.5393 c -0.46924,-14.69367 2.646092,-36.28765 -2.245064,-42.46913 -7.926728,6.35842 -15.480625,5.947 -22.357096,4.86431 4.64165,2.0704 9.652032,0.98704 13.844561,9.12057 2.470031,5.67296 1.354805,28.45737 1.354805,28.45737 z"
       id="path22"
       sodipodi:nodetypes="cccccc"
       inkscape:transform-center-x="5.4250986"
       inkscape:transform-center-y="16.429168" /><path
       style="fill:url(#linearGradient25);stroke:#648155;stroke-width:0"
       d="m 58.53767,172.70747 c 4.277394,-0.55769 8.454948,-2.4133 12.556024,-5.26312 2.729903,3.41838 2.334665,3.43744 2.420805,42.14975 l -9.717262,-0.42897 c 0.270814,-4.89423 0.100428,-14.11762 -2.141816,-26.41875 -0.50925,-2.79379 -2.039084,-7.06034 -3.117751,-10.03891 z"
       id="path24"
       sodipodi:nodetypes="ccccsc"
       inkscape:transform-center-x="0.8990695"
       inkscape:transform-center-y="16.643658" /><path
       style="display:inline;fill:url(#linearGradient27);fill-opacity:0.138356;stroke:#648155;stroke-width:0"
       d="m 48.522503,171.68248 c 2.90865,0.34519 6.120935,0.8348 9.13587,0.68126 3.626663,-0.1847 6.335873,-0.96076 9.965121,-2.82694 3.683139,-1.89389 6.490363,-4.85432 7.158904,-10.81891 1.72805,-9.49266 -1.74632,-17.13557 -7.9375,-23.8125 6.756522,18.22828 -9.720572,31.5692 -18.322395,36.77709 z"
       id="path25"
       sodipodi:nodetypes="cssccc"
       inkscape:transform-center-x="5.051394"
       inkscape:transform-center-y="-18.2265" /></g><g
     inkscape:groupmode="layer"
     id="layer7"
     inkscape:label="right_side_01"
     style="display:inline"><path
       id="rect2-0"
       style="display:inline;mix-blend-mode:multiply;fill:url(#linearGradient13-1);stroke:#648155;stroke-width:0"
       d="M 148.01282,-0.26303306 V 205.08051 l -0.0455,-205.29858456 -60.742039,-0.044959 z m -62.882476,0 C 80.579992,11.276976 86.538625,17.592599 99.264882,19.753833 h 10.935768 c 11.34732,0.639944 13.87992,8.091621 14.45804,17.053223 l -2.22416,39.481311 c -0.68163,8.09397 0.0911,17.299829 3.33623,25.393803 1.6083,4.77197 1.77114,14.71544 2.81637,28.21481 0.38879,5.02125 1.85783,10.53479 2.1885,16.45688 l 1.66812,7.41402 c -1.3533,7.84082 -0.11014,13.0855 0.92707,18.53582 -1.00405,3.54782 -2.60848,6.02607 -2.40967,8.52661 -2.42812,3.75495 -5.05447,7.17084 -8.34162,9.45317 l -1.85311,-0.74156 -1.66864,-0.92656 -1.11207,0.18552 -5.55781,20.93568 H 9.2366667e-6 V -0.26303306 Z" /><path
       style="display:inline;fill:url(#linearGradient7-8);stroke:#648155;stroke-width:0"
       d="M 85.131114,-0.26458336 C 80.579589,11.276434 86.537827,17.592757 99.264667,19.75409 H 110.2008 c 11.34732,0.639944 13.87982,8.091342 14.45793,17.052944 l -2.2243,39.481273 c -0.68163,8.09397 0.0914,17.30009 3.33645,25.394063 1.60829,4.77197 1.77079,14.71535 2.81603,28.21472 0.38878,5.02125 1.85798,10.53449 2.18864,16.45658 l 1.66823,7.41432 c -1.3533,7.84082 -0.11042,13.08549 0.92679,18.53581 -1.00405,3.54782 -2.60847,6.02593 -2.40966,8.52647 -2.42812,3.75495 -5.05397,7.17093 -8.34112,9.45326 l -1.85358,-0.74143 -1.66822,-0.92679 -1.11215,0.18536 -5.56075,20.94546 h 35.58876 l -0.0463,-209.96437386 z"
       id="path1-2"
       sodipodi:nodetypes="ccccccscccccccccccc" /><path
       style="display:inline;fill:url(#linearGradient36);stroke:#648155;stroke-width:0"
       d="m 108.91231,49.313915 c -1.10153,9.479159 -2.16517,18.958318 -2.05797,28.437477 -1.17107,4.150871 -2.10025,6.185222 -3.92886,16.089624 0.56126,5.61266 1.3467,15.838994 1.68379,16.837984 1.81525,4.90721 7.10937,13.22093 10.66406,19.8314 3.25405,6.52892 6.11915,13.41028 6.74654,21.51519 0.44833,6.67283 0.47256,12.15504 -0.47242,19.68776 -0.77202,5.47469 -2.55288,11.46614 -3.87301,17.23998 -1.55565,6.80392 -3.39004,13.76491 -5.26321,20.76366 l -18.041656,-0.0347 c 1.74184,-17.59479 5.084345,-35.18958 5.225521,-52.78437 -0.312812,-15.23035 -6.117507,-29.36233 -9.789584,-43.92083 -0.666962,-13.61257 4.647972,-24.94999 5.55625,-39.158341 0.92524,-15.09488 8.453659,-18.588512 8.758319,-18.750563 z"
       id="path13-8"
       sodipodi:nodetypes="cccccccsccccccc" /><path
       style="display:inline;fill:#caa7d9;fill-opacity:0.137255;stroke:#648155;stroke-width:0"
       d="m 123.2246,159.64946 c 0.13783,-1.81593 0.30258,-3.51598 0.79513,-4.95785 -1.1975,-11.73552 -14.10623,-44.51838 -15.62191,-50.60748 -1.36415,-10.209394 -1.53331,-19.584026 -1.54348,-28.297169 -0.79932,4.982281 -4.53176,11.242459 -3.92458,17.873758 0.8729,9.533471 1.32772,15.657411 1.71139,16.890501 1.09203,3.50968 5.01755,9.25694 7.359,13.76237 1.40535,2.70419 6.90377,13.02327 8.13984,18.05238 2.01161,5.45506 2.24255,13.81727 2.14862,17.51974 -0.0178,0.70061 0.71889,0.39303 0.93599,-0.2362 z"
       id="path15-6"
       sodipodi:nodetypes="ccccssscscc" /><path
       style="display:inline;fill:url(#linearGradient37);stroke:#648155;stroke-width:0"
       d="m 76.171795,209.80389 c 0.46924,-14.69367 -2.646092,-36.28765 2.245064,-42.46913 7.926728,6.35842 15.480625,5.947 22.357091,4.86431 -4.641645,2.0704 -9.652027,0.98704 -13.844556,9.12057 -2.470031,5.67296 -1.354805,28.45737 -1.354805,28.45737 z"
       id="path22-0"
       sodipodi:nodetypes="cccccc" /><path
       style="display:inline;fill:url(#linearGradient38);stroke:#648155;stroke-width:0"
       d="m 91.159972,172.97206 c -4.277394,-0.55769 -8.454948,-2.4133 -12.556024,-5.26312 -2.729903,3.41838 -2.334665,3.43744 -2.420805,42.14975 l 9.717262,-0.42897 c -0.270814,-4.89423 -0.100428,-14.11762 2.141816,-26.41875 0.50925,-2.79379 2.039084,-7.06034 3.117751,-10.03891 z"
       id="path24-2"
       sodipodi:nodetypes="ccccsc" /><path
       style="display:inline;fill:url(#linearGradient39);fill-opacity:0.138356;stroke:#648155;stroke-width:0"
       d="m 101.17514,171.94707 c -2.908651,0.34519 -6.120936,0.8348 -9.135871,0.68126 -3.626663,-0.1847 -6.335873,-0.96076 -9.965121,-2.82694 -3.683139,-1.89389 -6.490363,-4.85432 -7.158904,-10.81891 -1.72805,-9.49266 1.74632,-17.13557 7.9375,-23.8125 -6.756522,18.22828 9.720572,31.5692 18.322396,36.77709 z"
       id="path25-4"
       sodipodi:nodetypes="cssccc" /></g></svg>
